<svg width="32" height="32" viewBox="0 0 32 32" fill="none" xmlns="http://www.w3.org/2000/svg">
<path d="M9.32401 16.0001C9.32401 19.6814 12.3187 22.6761 16 22.6761C19.6813 22.6761 22.676 19.6814 22.676 16.0001C22.676 12.3188 19.6813 9.32409 16 9.32409C12.3187 9.32409 9.32401 12.3188 9.32401 16.0001ZM16 11.9908C18.2107 11.9908 20.0093 13.7894 20.0093 16.0001C20.0093 18.2108 18.2107 20.0094 16 20.0094C13.7893 20.0094 11.9907 18.2108 11.9907 16.0001C11.9907 13.7894 13.7893 11.9908 16 11.9908ZM14.664 25.3334H17.3307V29.3334H14.664V25.3334ZM14.664 2.66675H17.3307V6.66675H14.664V2.66675ZM2.664 14.6668H6.664V17.3334H2.664V14.6668ZM25.3307 14.6668H29.3307V17.3334H25.3307V14.6668ZM5.62534 24.4841L8.45201 21.6548L10.3387 23.5401L7.512 26.3694L5.62534 24.4841ZM21.6533 8.45875L24.4827 5.62942L26.368 7.51475L23.5387 10.3441L21.6533 8.45875ZM8.45601 10.3454L5.62667 7.51608L7.51334 5.63075L10.34 8.46008L8.45601 10.3454ZM26.368 24.4854L24.4827 26.3708L21.6533 23.5414L23.5387 21.6561L26.368 24.4854Z" fill="#3E85F3"/>
</svg>
