<?xml version="1.0" standalone="no"?>
<!DOCTYPE svg PUBLIC "-//W3C//DTD SVG 20010904//EN"
 "http://www.w3.org/TR/2001/REC-SVG-20010904/DTD/svg10.dtd">
<svg version="1.0" xmlns="http://www.w3.org/2000/svg"
 width="300.000000pt" height="300.000000pt" viewBox="0 0 300.000000 300.000000"
 preserveAspectRatio="xMidYMid meet">
<metadata>
Created by potrace 1.14, written by Peter Selinger 2001-2017
</metadata>
<g transform="translate(0.000000,300.000000) scale(0.100000,-0.100000)"
fill="#000000" stroke="none">
<path d="M1533 2638 c-21 -10 -69 -95 -59 -105 2 -3 -6 -20 -19 -39 -23 -34
-23 -36 -8 -82 25 -70 22 -166 -7 -282 -5 -19 -11 -51 -14 -70 -13 -86 -67
-260 -80 -260 -3 0 -29 11 -58 24 -29 13 -66 29 -83 35 -16 7 -50 29 -74 51
-75 67 -216 130 -324 145 -23 3 -49 8 -58 11 -43 12 -280 18 -409 9 -25 -1
-63 -3 -85 -4 -22 -1 -47 -5 -55 -11 -12 -7 -12 -12 4 -29 19 -21 19 -21 -1
-21 -12 0 -23 -7 -27 -15 -7 -19 26 -28 111 -29 53 -1 60 -3 46 -13 -9 -7 -24
-13 -33 -13 -9 0 -21 -5 -28 -12 -13 -13 12 -37 41 -38 18 0 25 -20 7 -20 -23
0 -8 -21 20 -26 16 -4 36 -17 45 -30 12 -18 22 -23 50 -20 28 2 35 -1 35 -16
0 -20 36 -38 76 -38 14 0 27 -6 30 -14 3 -8 19 -19 35 -25 16 -5 29 -16 30
-23 1 -29 10 -62 18 -72 18 -22 50 -136 52 -187 l3 -52 -39 -14 c-43 -15 -89
-14 -91 2 -8 81 -30 130 -54 120 -11 -4 -14 -17 -12 -50 5 -64 -3 -90 -44
-135 -26 -29 -34 -45 -29 -57 4 -10 7 -30 6 -45 -2 -16 2 -28 8 -28 5 0 9 -12
8 -26 -3 -43 19 -38 57 12 42 55 70 71 134 80 52 6 192 -10 201 -24 22 -31
202 -71 304 -67 139 6 246 50 338 139 50 48 59 53 114 60 45 5 67 13 87 33
l28 27 7 -35 c13 -60 8 -100 -17 -127 -25 -26 -61 -36 -225 -62 -294 -47 -425
-90 -499 -165 -83 -83 -97 -187 -50 -392 47 -211 172 -364 298 -366 38 0 256
40 526 99 64 13 126 26 139 29 12 2 31 7 41 10 10 3 27 8 37 10 153 32 398
136 464 197 61 55 72 88 75 218 5 230 -80 469 -191 537 -72 44 -190 50 -301
17 -32 -10 -61 -19 -64 -19 -3 0 -27 24 -54 53 l-49 52 27 25 c15 14 31 25 36
25 5 0 12 9 15 20 3 11 15 20 26 20 10 0 24 9 31 19 11 18 15 18 46 5 25 -10
50 -12 100 -5 37 4 78 9 91 9 13 1 31 7 40 15 9 8 33 17 54 20 20 3 44 11 53
18 8 7 32 12 52 12 43 0 75 13 66 28 -3 6 10 9 36 7 30 -1 46 3 55 15 7 9 21
17 33 17 37 0 54 11 41 26 -9 11 -8 14 5 14 10 0 27 5 39 12 21 11 20 12 -18
28 l-40 17 58 -2 c96 -4 139 13 85 34 -20 8 -21 10 -5 16 41 17 15 32 -75 44
-51 7 -104 14 -116 16 -44 7 -226 18 -297 18 -188 0 -353 -39 -466 -109 -20
-13 -65 -28 -100 -34 -35 -6 -76 -18 -92 -27 -16 -8 -31 -12 -34 -9 -9 9 -12
289 -3 336 4 25 11 63 14 85 22 136 26 155 37 155 17 0 69 95 69 125 0 17 -9
41 -19 54 -10 14 -17 30 -14 37 5 14 -31 89 -48 100 -19 12 -93 13 -116 2z
m-876 -1354 c-3 -3 -12 -4 -19 -1 -8 3 -5 6 6 6 11 1 17 -2 13 -5z"/>
</g>
</svg>
