<svg width="32" height="32" viewBox="0 0 32 32" fill="none" xmlns="http://www.w3.org/2000/svg">
<path d="M27.656 17.3933C26.7525 17.6333 25.8216 17.7547 24.8867 17.7546C22.04 17.7546 19.3667 16.648 17.3587 14.64C16.0401 13.3138 15.0921 11.6651 14.6093 9.85837C14.1264 8.05161 14.1255 6.14985 14.6067 4.34264C14.6668 4.11669 14.6664 3.8789 14.6056 3.65314C14.5448 3.42738 14.4257 3.22157 14.2602 3.05638C14.0947 2.89119 13.8887 2.77241 13.6629 2.71196C13.437 2.65151 13.1992 2.65152 12.9734 2.71198C10.7109 3.31489 8.64677 4.50214 6.98803 6.15464C1.79069 11.352 1.79069 19.812 6.98803 25.012C8.2234 26.2542 9.69287 27.2391 11.3114 27.9097C12.93 28.5803 14.6654 28.9232 16.4174 28.9186C18.1688 28.9236 19.9039 28.5809 21.522 27.9105C23.1401 27.2402 24.6092 26.2554 25.844 25.0133C27.4978 23.3542 28.6856 21.289 29.288 19.0253C29.3479 18.7994 29.3474 18.5618 29.2866 18.3362C29.2258 18.1106 29.1069 17.9049 28.9416 17.7397C28.7764 17.5745 28.5707 17.4555 28.3451 17.3947C28.1195 17.334 27.8819 17.3335 27.656 17.3933ZM23.96 23.128C22.972 24.1214 21.7967 24.9091 20.5023 25.4453C19.2078 25.9815 17.8198 26.2557 16.4187 26.252C15.0171 26.2555 13.6287 25.981 12.3338 25.4446C11.0389 24.9081 9.8632 24.1203 8.87469 23.1266C4.71736 18.968 4.71736 12.2 8.87469 8.04131C9.67803 7.23887 10.6055 6.57119 11.6214 6.06398C11.4727 7.98272 11.74 9.91095 12.405 11.7169C13.07 13.5228 14.1171 15.1639 15.4747 16.528C16.8358 17.8898 18.4764 18.9398 20.2831 19.6053C22.0897 20.2709 24.0194 20.5361 25.9387 20.3826C25.4287 21.3968 24.7608 22.3235 23.96 23.128Z" fill="#3E85F3"/>
</svg>
