<svg aria-hidden="true" style="position: absolute; width: 0; height: 0; overflow: hidden;" version="1.1" xmlns="http://www.w3.org/2000/svg" xmlns:xlink="http://www.w3.org/1999/xlink">
<defs>
<symbol id="icon-logo" viewBox="0 0 32 32">
<path d="M29.082 0.314h-4.009c-1.237 0-2.24 0.983-2.24 2.195v3.929c0 1.212 1.003 2.195 2.24 2.195h4.009c1.237 0 2.24-0.983 2.24-2.195v-3.929c0-1.212-1.003-2.195-2.24-2.195z"></path>
<path d="M6.73 23.040h-4.318c-1.332 0-2.412 0.983-2.412 2.195v3.929c0 1.213 1.080 2.195 2.412 2.195h4.318c1.332 0 2.412-0.983 2.412-2.195v-3.929c0-1.212-1.080-2.195-2.412-2.195z"></path>
<path d="M6.25 11.582h-4.009c-1.237 0-2.24 0.983-2.24 2.195v3.929c0 1.212 1.003 2.195 2.24 2.195h4.009c1.237 0 2.24-0.983 2.24-2.195v-3.929c0-1.212-1.003-2.195-2.24-2.195z"></path>
<path d="M17.766 22.978h-4.009c-1.237 0-2.24 0.983-2.24 2.195l-0 3.929c0 1.212 1.003 2.195 2.241 2.195h4.009c1.237 0 2.24-0.983 2.24-2.195v-3.929c0-1.212-1.003-2.195-2.24-2.195z"></path>
<path d="M6.25 0.086h-4.009c-1.237 0-2.24 0.983-2.24 2.195v3.929c0 1.212 1.003 2.195 2.24 2.195h4.009c1.237 0 2.24-0.983 2.24-2.195v-3.929c0-1.212-1.003-2.195-2.24-2.195z"></path>
<path d="M18.076 11.697h-4.009c-1.237 0-2.24 0.983-2.24 2.195v3.929c0 1.212 1.003 2.195 2.24 2.195h4.009c1.237 0 2.24-0.983 2.24-2.195v-3.929c0-1.212-1.003-2.195-2.24-2.195z"></path>
<path d="M29.333 22.978h-4.010c-1.237 0-2.24 0.983-2.24 2.195v3.929c0 1.212 1.003 2.195 2.24 2.195h4.009c1.237 0 2.24-0.983 2.24-2.195v-3.929c0-1.212-1.003-2.195-2.24-2.195z"></path>
<path d="M17.591 0.224h-4.009c-1.237 0-2.24 0.983-2.24 2.195v3.929c0 1.212 1.003 2.195 2.24 2.195h4.009c1.237 0 2.24-0.984 2.24-2.196v-3.929c0-1.212-1.003-2.195-2.24-2.195z"></path>
<path d="M29.044 11.926h-4.010c-1.237 0-2.24 0.983-2.24 2.195v3.929c0 1.212 1.003 2.195 2.24 2.195h4.009c1.237 0 2.24-0.983 2.24-2.195v-3.929c0-1.212-1.003-2.195-2.24-2.195z"></path>
</symbol>
<symbol id="icon-github" viewBox="0 0 32 32">
<path d="M16 0.395c-8.836 0-16 7.163-16 16 0 7.069 4.585 13.067 10.942 15.182 0.8 0.148 1.094-0.347 1.094-0.77 0-0.381-0.015-1.642-0.022-2.979-4.452 0.968-5.391-1.888-5.391-1.888-0.728-1.849-1.776-2.341-1.776-2.341-1.452-0.993 0.11-0.973 0.11-0.973 1.606 0.113 2.452 1.649 2.452 1.649 1.427 2.446 3.743 1.739 4.656 1.33 0.143-1.034 0.558-1.74 1.016-2.14-3.554-0.404-7.29-1.777-7.29-7.907 0-1.747 0.625-3.174 1.649-4.295-0.166-0.403-0.714-2.030 0.155-4.234 0 0 1.344-0.43 4.401 1.64 1.276-0.355 2.645-0.532 4.005-0.539 1.359 0.006 2.729 0.184 4.008 0.539 3.054-2.070 4.395-1.64 4.395-1.64 0.871 2.204 0.323 3.831 0.157 4.234 1.026 1.12 1.647 2.548 1.647 4.295 0 6.145-3.743 7.498-7.306 7.895 0.574 0.497 1.085 1.47 1.085 2.963 0 2.141-0.019 3.864-0.019 4.391 0 0.426 0.288 0.925 1.099 0.768 6.354-2.118 10.933-8.113 10.933-15.18 0-8.837-7.164-16-16-16z"></path>
</symbol>
<symbol id="icon-moon" viewBox="0 0 32 32">
<path fill="#3e85f3" style="fill: var(--color1, #3e85f3)" d="M27.656 17.393c-0.903 0.24-1.834 0.362-2.77 0.362-2.846 0-5.52-1.107-7.527-3.115-1.923-1.934-3.112-4.6-3.112-7.544 0-0.979 0.131-1.927 0.378-2.828l-0.017 0.075c0.029-0.103 0.045-0.221 0.045-0.344 0-0.736-0.597-1.333-1.333-1.333-0.123 0-0.242 0.017-0.355 0.048l0.009-0.002c-2.353 0.64-4.373 1.837-5.985 3.443l0-0c-5.197 5.197-5.197 13.657 0 18.857 2.4 2.413 5.723 3.907 9.395 3.907 0.012 0 0.024-0 0.037-0h-0.002c0.011 0 0.024 0 0.037 0 3.67 0 6.991-1.493 9.389-3.905l0.001-0.001c1.607-1.612 2.805-3.634 3.422-5.894l0.022-0.094c0.028-0.103 0.045-0.221 0.045-0.343 0-0.737-0.597-1.334-1.334-1.334-0.122 0-0.24 0.016-0.352 0.047l0.009-0.002zM23.96 23.128c-1.919 1.93-4.577 3.124-7.513 3.124-0.010 0-0.020 0-0.030-0h0.002c-0.008 0-0.017 0-0.026 0-2.938 0-5.597-1.195-7.517-3.125l-0-0c-4.158-4.159-4.158-10.927 0-15.086 0.803-0.802 1.73-1.47 2.746-1.977-0.025 0.309-0.040 0.669-0.040 1.032 0 3.681 1.488 7.015 3.894 9.432l-0.001-0c2.406 2.408 5.732 3.897 9.405 3.897 0.373 0 0.742-0.015 1.107-0.045l-0.048 0.003c-0.538 1.056-1.198 1.961-1.979 2.745l0-0z"></path>
</symbol>
<symbol id="icon-sun" viewBox="0 0 32 32">
<path fill="#3e85f3" style="fill: var(--color1, #3e85f3)" d="M9.324 16c0.004 3.685 2.991 6.672 6.676 6.676h0c3.685-0.004 6.672-2.991 6.676-6.676v-0c-0.004-3.685-2.991-6.672-6.676-6.676h-0c-3.685 0.004-6.672 2.991-6.676 6.676v0zM16 11.99c2.21 0 4.010 1.8 4.010 4.010s-1.8 4.010-4.010 4.010c-2.214-0.002-4.008-1.796-4.010-4.010v-0c0-2.21 1.8-4.010 4.010-4.010zM14.664 25.333h2.667v4h-2.667v-4zM14.664 2.667h2.667v4h-2.667v-4zM2.664 14.667h4v2.666h-4v-2.666zM25.331 14.667h4v2.666h-4v-2.666zM5.625 24.484l2.827-2.83 1.887 1.886-2.827 2.83-1.887-1.886zM21.653 8.46l2.83-2.83 1.885 1.886-2.83 2.83-1.885-1.886zM8.456 10.345l-2.83-2.829 1.887-1.885 2.827 2.83-1.884 1.884zM26.368 24.485l-1.885 1.886-2.83-2.83 1.886-1.885 2.829 2.83z"></path>
</symbol>
</defs>
</svg>
